<svg xmlns="http://www.w3.org/2000/svg" viewBox="0 0 64 64" role="img" aria-label="أفواج">
  <defs>
    <radialGradient id="bg" cx="50%" cy="28%" r="78%"><stop offset="0" stop-color="#1c7054"/><stop offset=".55" stop-color="#0c3a2b"/><stop offset="1" stop-color="#051a12"/></radialGradient>
    <linearGradient id="ring" x1="0" y1="0" x2="1" y2="1"><stop offset="0" stop-color="#fbeec6"/><stop offset=".45" stop-color="#d8b25a"/><stop offset="1" stop-color="#7d5a14"/></linearGradient>
    <clipPath id="c"><circle cx="32" cy="32" r="27.6"/></clipPath>
  </defs>
  <circle cx="32" cy="32" r="31.2" fill="url(#ring)"/>
  <circle cx="32" cy="32" r="28.4" fill="url(#bg)"/>
  <g clip-path="url(#c)" fill="#f3dc9c" stroke="#f3dc9c" stroke-linecap="round"><g opacity="0.45"><circle cx="13" cy="14.8" r="1.5"/><line x1="13" y1="16.80" x2="13" y2="22.6" stroke-width="0.6"/></g><g opacity="0.45"><circle cx="19.33" cy="14.8" r="1.5"/><line x1="19.33" y1="16.80" x2="19.33" y2="22.6" stroke-width="0.6"/></g><g opacity="0.45"><circle cx="25.67" cy="14.8" r="1.5"/><line x1="25.67" y1="16.80" x2="25.67" y2="22.6" stroke-width="0.6"/></g><g opacity="0.45"><circle cx="32" cy="14.8" r="1.5"/><line x1="32" y1="16.80" x2="32" y2="22.6" stroke-width="0.6"/></g><g opacity="0.45"><circle cx="38.33" cy="14.8" r="1.5"/><line x1="38.33" y1="16.80" x2="38.33" y2="22.6" stroke-width="0.6"/></g><g opacity="0.45"><circle cx="44.67" cy="14.8" r="1.5"/><line x1="44.67" y1="16.80" x2="44.67" y2="22.6" stroke-width="0.6"/></g><g opacity="0.45"><circle cx="51" cy="14.8" r="1.5"/><line x1="51" y1="16.80" x2="51" y2="22.6" stroke-width="0.6"/></g><g opacity="0.72"><circle cx="14" cy="26.55" r="1.95"/><line x1="14" y1="29.10" x2="14" y2="36.6" stroke-width="0.78"/></g><g opacity="0.72"><circle cx="21.2" cy="26.55" r="1.95"/><line x1="21.2" y1="29.10" x2="21.2" y2="36.6" stroke-width="0.78"/></g><g opacity="0.72"><circle cx="28.4" cy="26.55" r="1.95"/><line x1="28.4" y1="29.10" x2="28.4" y2="36.6" stroke-width="0.78"/></g><g opacity="0.72"><circle cx="35.6" cy="26.55" r="1.95"/><line x1="35.6" y1="29.10" x2="35.6" y2="36.6" stroke-width="0.78"/></g><g opacity="0.72"><circle cx="42.8" cy="26.55" r="1.95"/><line x1="42.8" y1="29.10" x2="42.8" y2="36.6" stroke-width="0.78"/></g><g opacity="0.72"><circle cx="50" cy="26.55" r="1.95"/><line x1="50" y1="29.10" x2="50" y2="36.6" stroke-width="0.78"/></g><g opacity="1"><circle cx="17" cy="40.55" r="2.45"/><line x1="17" y1="43.80" x2="17" y2="53" stroke-width="0.95"/></g><g opacity="1"><circle cx="24.5" cy="40.55" r="2.45"/><line x1="24.5" y1="43.80" x2="24.5" y2="53" stroke-width="0.95"/></g><g opacity="1"><circle cx="32" cy="40.55" r="2.45"/><line x1="32" y1="43.80" x2="32" y2="53" stroke-width="0.95"/></g><g opacity="1"><circle cx="39.5" cy="40.55" r="2.45"/><line x1="39.5" y1="43.80" x2="39.5" y2="53" stroke-width="0.95"/></g><g opacity="1"><circle cx="47" cy="40.55" r="2.45"/><line x1="47" y1="43.80" x2="47" y2="53" stroke-width="0.95"/></g></g>
</svg>
